<svg xmlns="http://www.w3.org/2000/svg" xmlns:xlink="http://www.w3.org/1999/xlink" version="1.1" width="1000" height="1000" viewBox="0 0 1000 1000" xml:space="preserve">
<desc>Created with Fabric.js 3.5.0</desc>
<defs>
</defs>
<rect x="0" y="0" width="100%" height="100%" fill="rgba(255,255,255,0)"/>
<g transform="matrix(1 0 0 1 732.1709 248.4708)" style="" id="236625">
		
<path xml:space="preserve" font-family="Lato" font-size="100" font-style="normal" font-weight="bold" style="stroke: none; stroke-width: 0; stroke-dasharray: none; stroke-linecap: butt; stroke-dashoffset: 0; stroke-linejoin: miter; stroke-miterlimit: 4; is-custom-font: none; font-file-url: none; fill: rgb(0,0,0); fill-rule: nonzero; opacity: 1; white-space: pre;" d="M-39.90-40.94L-39.90 4.16L-30.80 4.16L-30.80 11.31Q-30.80 12.31-31.45 13.04Q-32.10 13.76-33.35 13.76L-33.35 13.76L-39.90 13.76L-39.90 31.41L-50.70 31.41L-50.70 13.76L-81.20 13.76Q-82.45 13.76-83.40 12.99Q-84.35 12.21-84.60 11.06L-84.60 11.06L-85.85 4.81L-51.60-40.94L-39.90-40.94ZM-50.70 4.16L-50.70-19.49Q-50.70-21.09-50.60-22.94Q-50.50-24.79-50.25-26.79L-50.25-26.79L-72.70 4.16L-50.70 4.16ZM26.50-4.74L26.50-4.74Q26.50 4.71 24.48 11.69Q22.45 18.66 18.88 23.21Q15.30 27.76 10.43 29.99Q5.55 32.21-0.10 32.21L-0.10 32.21Q-5.75 32.21-10.57 29.99Q-15.40 27.76-18.95 23.21Q-22.50 18.66-24.50 11.69Q-26.50 4.71-26.50-4.74L-26.50-4.74Q-26.50-14.24-24.50-21.19Q-22.50-28.14-18.95-32.69Q-15.40-37.24-10.57-39.46Q-5.75-41.69-0.10-41.69L-0.10-41.69Q5.55-41.69 10.43-39.46Q15.30-37.24 18.88-32.69Q22.45-28.14 24.48-21.19Q26.50-14.24 26.50-4.74ZM13.75-4.74L13.75-4.74Q13.75-12.59 12.60-17.74Q11.45-22.89 9.53-25.94Q7.60-28.99 5.10-30.21Q2.60-31.44-0.10-31.44L-0.10-31.44Q-2.75-31.44-5.22-30.21Q-7.70-28.99-9.60-25.94Q-11.50-22.89-12.63-17.74Q-13.75-12.59-13.75-4.74L-13.75-4.74Q-13.75 3.11-12.63 8.26Q-11.50 13.41-9.60 16.46Q-7.70 19.51-5.22 20.74Q-2.75 21.96-0.10 21.96L-0.10 21.96Q2.60 21.96 5.10 20.74Q7.60 19.51 9.53 16.46Q11.45 13.41 12.60 8.26Q13.75 3.11 13.75-4.74ZM76.10-40.94L76.10 4.16L85.20 4.16L85.20 11.31Q85.20 12.31 84.55 13.04Q83.90 13.76 82.65 13.76L82.65 13.76L76.10 13.76L76.10 31.41L65.30 31.41L65.30 13.76L34.80 13.76Q33.55 13.76 32.60 12.99Q31.65 12.21 31.40 11.06L31.40 11.06L30.15 4.81L64.40-40.94L76.10-40.94ZM65.30 4.16L65.30-19.49Q65.30-21.09 65.40-22.94Q65.50-24.79 65.75-26.79L65.75-26.79L43.30 4.16L65.30 4.16Z"/></g>
<g transform="matrix(1 0 0 1 250.7993 248.4708)" style="" id="361757">
		
<path xml:space="preserve" font-family="Lato" font-size="36" font-style="normal" font-weight="bold" style="stroke: none; stroke-width: 0; stroke-dasharray: none; stroke-linecap: butt; stroke-dashoffset: 0; stroke-linejoin: miter; stroke-miterlimit: 4; is-custom-font: none; font-file-url: none; fill: rgb(0,0,0); fill-rule: nonzero; opacity: 1; white-space: pre;" d="M-57.95-33.04L-57.95-22.12L-56.81-22.12Q-56.13-22.12-55.68-22.31Q-55.23-22.50-54.91-22.91L-54.91-22.91L-47.72-32.00Q-47.27-32.58-46.78-32.80Q-46.28-33.03-45.53-33.03L-45.53-33.03L-41.35-33.03L-50.12-22.21Q-50.53-21.70-50.91-21.36Q-51.29-21.02-51.72-20.80L-51.72-20.80Q-51.13-20.59-50.65-20.19Q-50.17-19.80-49.72-19.18L-49.72-19.18L-40.69-7.00L-44.97-7.00Q-45.83-7.00-46.26-7.24Q-46.68-7.48-46.97-7.95L-46.97-7.95L-54.33-17.56Q-54.69-18.03-55.14-18.24Q-55.59-18.45-56.42-18.45L-56.42-18.45L-57.95-18.45L-57.95-7.00L-62.79-7.00L-62.79-33.04L-57.95-33.04ZM-38.45-25.47L-34.01-25.47L-34.01-13.73Q-34.01-12.04-33.23-11.11Q-32.44-10.18-30.88-10.18L-30.88-10.18Q-29.72-10.18-28.72-10.70Q-27.71-11.21-26.81-12.11L-26.81-12.11L-26.81-25.47L-22.36-25.47L-22.36-7.00L-25.08-7.00Q-25.94-7.00-26.21-7.81L-26.21-7.81L-26.52-9.28Q-27.10-8.71-27.71-8.23Q-28.32-7.75-29.01-7.42Q-29.71-7.09-30.51-6.90Q-31.31-6.71-32.23-6.71L-32.23-6.71Q-33.74-6.71-34.90-7.22Q-36.06-7.74-36.85-8.67Q-37.64-9.61-38.05-10.89Q-38.45-12.18-38.45-13.73L-38.45-13.73L-38.45-25.47ZM-17.32-33.75L-12.88-33.75L-12.88-7.00L-17.32-7.00L-17.32-33.75ZM-7.57-33.75L-3.12-33.75L-3.12-7.00L-7.57-7.00L-7.57-33.75ZM16.37-18.66L16.37-7.00L14.38-7.00Q13.75-7.00 13.39-7.19Q13.03-7.38 12.85-7.95L12.85-7.95L12.45-9.27Q11.75-8.63 11.07-8.16Q10.40-7.68 9.68-7.36Q8.96-7.03 8.15-6.87Q7.34-6.71 6.35-6.71L6.35-6.71Q5.18-6.71 4.19-7.02Q3.20-7.34 2.49-7.97Q1.78-8.60 1.38-9.54Q0.98-10.47 0.98-11.71L0.98-11.71Q0.98-12.76 1.53-13.77Q2.08-14.79 3.36-15.61Q4.64-16.43 6.76-16.97Q8.89-17.51 12.04-17.58L12.04-17.58L12.04-18.66Q12.04-20.52 11.25-21.41Q10.47-22.30 8.98-22.30L8.98-22.30Q7.90-22.30 7.18-22.05Q6.46-21.79 5.92-21.48Q5.39-21.16 4.94-20.91Q4.49-20.66 3.95-20.66L3.95-20.66Q3.50-20.66 3.18-20.89Q2.86-21.13 2.66-21.47L2.66-21.47L1.85-22.89Q5.03-25.81 9.53-25.81L9.53-25.81Q11.15-25.81 12.42-25.28Q13.69-24.75 14.57-23.80Q15.46-22.86 15.91-21.54Q16.37-20.23 16.37-18.66L16.37-18.66ZM7.73-9.77L7.73-9.77Q8.42-9.77 8.99-9.89Q9.57-10.02 10.08-10.27Q10.60-10.53 11.07-10.89Q11.55-11.26 12.04-11.77L12.04-11.77L12.04-14.88Q10.09-14.79 8.79-14.55Q7.48-14.30 6.69-13.93Q5.90-13.55 5.56-13.05Q5.23-12.54 5.23-11.95L5.23-11.95Q5.23-10.78 5.92-10.27Q6.62-9.77 7.73-9.77ZM25.19-7.00L20.75-7.00L20.75-25.47L23.47-25.47Q24.33-25.47 24.60-24.66L24.60-24.66L24.91-23.20Q25.46-23.77 26.08-24.24Q26.71-24.71 27.40-25.05Q28.09-25.39 28.88-25.57Q29.68-25.75 30.61-25.75L30.61-25.75Q32.12-25.75 33.29-25.24Q34.46-24.73 35.25-23.80Q36.03-22.87 36.43-21.59Q36.84-20.30 36.84-18.75L36.84-18.75L36.84-7.00L32.39-7.00L32.39-18.75Q32.39-20.44 31.61-21.37Q30.83-22.30 29.26-22.30L29.26-22.30Q28.11-22.30 27.10-21.78Q26.09-21.25 25.19-20.35L25.19-20.35L25.19-7.00ZM41.50-25.47L45.95-25.47L45.95-7.00L41.50-7.00L41.50-25.47ZM65.12-23.18L63.95-21.56Q63.75-21.31 63.56-21.16Q63.37-21.02 63.01-21.02L63.01-21.02Q62.67-21.02 62.35-21.23Q62.02-21.43 61.57-21.69Q61.12-21.96 60.50-22.16Q59.88-22.37 58.96-22.37L58.96-22.37Q57.79-22.37 56.91-21.95Q56.03-21.52 55.44-20.73Q54.86-19.94 54.57-18.81Q54.28-17.69 54.28-16.27L54.28-16.27Q54.28-14.79 54.60-13.64Q54.91-12.49 55.51-11.70Q56.10-10.92 56.95-10.52Q57.79-10.11 58.85-10.11L58.85-10.11Q59.92-10.11 60.57-10.37Q61.23-10.63 61.68-10.95Q62.13-11.26 62.46-11.52Q62.80-11.79 63.21-11.79L63.21-11.79Q63.75-11.79 64.02-11.37L64.02-11.37L65.30-9.75Q64.56-8.89 63.70-8.30Q62.83-7.72 61.90-7.37Q60.98-7.01 59.99-6.87Q59.00-6.73 58.03-6.73L58.03-6.73Q56.32-6.73 54.80-7.37Q53.29-8.00 52.17-9.23Q51.04-10.45 50.38-12.23Q49.73-14.00 49.73-16.27L49.73-16.27Q49.73-18.30 50.31-20.04Q50.90-21.78 52.03-23.04Q53.17-24.31 54.84-25.03Q56.51-25.75 58.69-25.75L58.69-25.75Q60.76-25.75 62.32-25.09Q63.88-24.42 65.12-23.18L65.12-23.18ZM68.43-25.47L72.88-25.47L72.88-7.00L68.43-7.00L68.43-25.47Z"/><path xml:space="preserve" font-family="Lato" font-size="36" font-style="normal" font-weight="bold" style="stroke: none; stroke-width: 0; stroke-dasharray: none; stroke-linecap: butt; stroke-dashoffset: 0; stroke-linejoin: miter; stroke-miterlimit: 4; is-custom-font: none; font-file-url: none; fill: rgb(0,0,0); fill-rule: nonzero; opacity: 1; white-space: pre;" d="M-79.26 29.61L-89.09 29.61L-89.09 3.59L-80.10 3.59Q-77.55 3.59-75.74 4.07Q-73.93 4.56-72.77 5.46Q-71.61 6.36-71.07 7.64Q-70.53 8.91-70.53 10.52L-70.53 10.52Q-70.53 11.43-70.80 12.27Q-71.07 13.11-71.63 13.84Q-72.20 14.57-73.07 15.16Q-73.95 15.75-75.15 16.17L-75.15 16.17Q-69.79 17.37-69.79 21.96L-69.79 21.96Q-69.79 23.62-70.42 25.02Q-71.05 26.43-72.26 27.45Q-73.46 28.46-75.23 29.04Q-76.99 29.61-79.26 29.61L-79.26 29.61ZM-79.35 18.20L-84.24 18.20L-84.24 25.83L-79.33 25.83Q-77.98 25.83-77.07 25.51Q-76.16 25.19-75.61 24.65Q-75.06 24.11-74.82 23.39Q-74.58 22.67-74.58 21.86L-74.58 21.86Q-74.58 21.01-74.85 20.34Q-75.12 19.66-75.69 19.18Q-76.27 18.71-77.17 18.45Q-78.07 18.20-79.35 18.20L-79.35 18.20ZM-84.24 7.33L-84.24 14.85L-80.37 14.85Q-77.91 14.85-76.63 13.95Q-75.35 13.05-75.35 11.09L-75.35 11.09Q-75.35 9.06-76.50 8.19Q-77.66 7.33-80.10 7.33L-80.10 7.33L-84.24 7.33ZM-66.26 11.15L-61.82 11.15L-61.82 22.88Q-61.82 24.57-61.03 25.50Q-60.25 26.43-58.68 26.43L-58.68 26.43Q-57.53 26.43-56.52 25.92Q-55.52 25.40-54.62 24.50L-54.62 24.50L-54.62 11.15L-50.17 11.15L-50.17 29.61L-52.89 29.61Q-53.75 29.61-54.02 28.80L-54.02 28.80L-54.33 27.33Q-54.90 27.90-55.52 28.38Q-56.13 28.86-56.82 29.19Q-57.51 29.52-58.31 29.71Q-59.12 29.90-60.03 29.90L-60.03 29.90Q-61.55 29.90-62.71 29.39Q-63.87 28.88-64.66 27.94Q-65.45 27.00-65.86 25.72Q-66.26 24.43-66.26 22.88L-66.26 22.88L-66.26 11.15ZM-45.13 2.87L-40.68 2.87L-40.68 29.61L-45.13 29.61L-45.13 2.87ZM-36.04 11.15L-31.59 11.15L-31.59 22.88Q-31.59 24.57-30.81 25.50Q-30.03 26.43-28.46 26.43L-28.46 26.43Q-27.31 26.43-26.30 25.92Q-25.29 25.40-24.39 24.50L-24.39 24.50L-24.39 11.15L-19.95 11.15L-19.95 29.61L-22.67 29.61Q-23.53 29.61-23.80 28.80L-23.80 28.80L-24.11 27.33Q-24.68 27.90-25.29 28.38Q-25.91 28.86-26.60 29.19Q-27.29 29.52-28.09 29.71Q-28.89 29.90-29.81 29.90L-29.81 29.90Q-31.32 29.90-32.48 29.39Q-33.65 28.88-34.44 27.94Q-35.23 27.00-35.63 25.72Q-36.04 24.43-36.04 22.88L-36.04 22.88L-36.04 11.15ZM-10.75 29.61L-15.20 29.61L-15.20 11.15L-12.48 11.15Q-11.61 11.15-11.34 11.96L-11.34 11.96L-11.04 13.41Q-10.48 12.84-9.86 12.37Q-9.24 11.90-8.54 11.56Q-7.85 11.22-7.06 11.04Q-6.27 10.86-5.33 10.86L-5.33 10.86Q-3.82 10.86-2.65 11.37Q-1.48 11.88-0.70 12.81Q0.09 13.74 0.49 15.03Q0.90 16.31 0.90 17.86L0.90 17.86L0.90 29.61L-3.55 29.61L-3.55 17.86Q-3.55 16.17-4.33 15.24Q-5.12 14.31-6.68 14.31L-6.68 14.31Q-7.83 14.31-8.84 14.84Q-9.85 15.36-10.75 16.26L-10.75 16.26L-10.75 29.61ZM19.74 17.95L19.74 29.61L17.74 29.61Q17.11 29.61 16.75 29.43Q16.39 29.24 16.21 28.66L16.21 28.66L15.82 27.35Q15.12 27.98 14.44 28.45Q13.77 28.93 13.05 29.25Q12.33 29.58 11.52 29.74Q10.71 29.90 9.72 29.90L9.72 29.90Q8.55 29.90 7.56 29.59Q6.57 29.27 5.86 28.64Q5.14 28.01 4.75 27.08Q4.35 26.14 4.35 24.90L4.35 24.90Q4.35 23.85 4.90 22.84Q5.45 21.82 6.73 21.00Q8.01 20.18 10.13 19.64Q12.25 19.10 15.40 19.03L15.40 19.03L15.40 17.95Q15.40 16.10 14.62 15.21Q13.84 14.31 12.34 14.31L12.34 14.31Q11.26 14.31 10.54 14.57Q9.82 14.82 9.29 15.13Q8.76 15.45 8.31 15.70Q7.86 15.95 7.32 15.95L7.32 15.95Q6.87 15.95 6.55 15.72Q6.22 15.48 6.03 15.14L6.03 15.14L5.22 13.72Q8.40 10.80 12.90 10.80L12.90 10.80Q14.52 10.80 15.79 11.34Q17.06 11.87 17.94 12.81Q18.82 13.76 19.28 15.07Q19.74 16.38 19.74 17.95L19.74 17.95ZM11.10 26.84L11.10 26.84Q11.79 26.84 12.36 26.72Q12.94 26.59 13.45 26.34Q13.96 26.09 14.44 25.72Q14.92 25.35 15.40 24.84L15.40 24.84L15.40 21.73Q13.46 21.82 12.16 22.06Q10.85 22.31 10.06 22.68Q9.27 23.06 8.93 23.57Q8.60 24.07 8.60 24.66L8.60 24.66Q8.60 25.83 9.29 26.34Q9.99 26.84 11.10 26.84ZM28.56 29.61L24.12 29.61L24.12 11.15L26.83 11.15Q27.70 11.15 27.97 11.96L27.97 11.96L28.26 13.32Q28.74 12.78 29.27 12.33Q29.80 11.88 30.41 11.56Q31.01 11.24 31.70 11.05Q32.40 10.86 33.22 10.86L33.22 10.86Q34.97 10.86 36.10 11.80Q37.22 12.75 37.78 14.31L37.78 14.31Q38.21 13.40 38.86 12.74Q39.51 12.08 40.28 11.67Q41.05 11.25 41.93 11.06Q42.80 10.86 43.68 10.86L43.68 10.86Q45.21 10.86 46.40 11.33Q47.59 11.79 48.40 12.69Q49.21 13.59 49.63 14.89Q50.05 16.19 50.05 17.86L50.05 17.86L50.05 29.61L45.61 29.61L45.61 17.86Q45.61 16.10 44.83 15.21Q44.06 14.31 42.57 14.31L42.57 14.31Q41.88 14.31 41.30 14.55Q40.71 14.78 40.27 15.22Q39.83 15.66 39.58 16.33Q39.33 17.00 39.33 17.86L39.33 17.86L39.33 29.61L34.86 29.61L34.86 17.86Q34.86 16.01 34.12 15.16Q33.37 14.31 31.91 14.31L31.91 14.31Q30.96 14.31 30.12 14.79Q29.28 15.27 28.56 16.10L28.56 16.10L28.56 29.61ZM68.90 17.95L68.90 29.61L66.90 29.61Q66.27 29.61 65.91 29.43Q65.55 29.24 65.37 28.66L65.37 28.66L64.98 27.35Q64.27 27.98 63.60 28.45Q62.92 28.93 62.20 29.25Q61.48 29.58 60.67 29.74Q59.86 29.90 58.87 29.90L58.87 29.90Q57.70 29.90 56.71 29.59Q55.72 29.27 55.01 28.64Q54.30 28.01 53.91 27.08Q53.51 26.14 53.51 24.90L53.51 24.90Q53.51 23.85 54.06 22.84Q54.61 21.82 55.89 21.00Q57.16 20.18 59.29 19.64Q61.41 19.10 64.56 19.03L64.56 19.03L64.56 17.95Q64.56 16.10 63.78 15.21Q63.00 14.31 61.50 14.31L61.50 14.31Q60.42 14.31 59.70 14.57Q58.98 14.82 58.45 15.13Q57.92 15.45 57.47 15.70Q57.02 15.95 56.48 15.95L56.48 15.95Q56.03 15.95 55.71 15.72Q55.38 15.48 55.18 15.14L55.18 15.14L54.37 13.72Q57.56 10.80 62.06 10.80L62.06 10.80Q63.68 10.80 64.95 11.34Q66.22 11.87 67.10 12.81Q67.98 13.76 68.44 15.07Q68.90 16.38 68.90 17.95L68.90 17.95ZM60.26 26.84L60.26 26.84Q60.94 26.84 61.52 26.72Q62.10 26.59 62.61 26.34Q63.12 26.09 63.60 25.72Q64.08 25.35 64.56 24.84L64.56 24.84L64.56 21.73Q62.62 21.82 61.31 22.06Q60.01 22.31 59.22 22.68Q58.42 23.06 58.09 23.57Q57.76 24.07 57.76 24.66L57.76 24.66Q57.76 25.83 58.45 26.34Q59.14 26.84 60.26 26.84ZM88.99 29.61L86.27 29.61Q85.41 29.61 85.14 28.80L85.14 28.80L84.78 27.02Q84.20 27.67 83.57 28.19Q82.94 28.71 82.21 29.09Q81.48 29.47 80.65 29.68Q79.81 29.88 78.84 29.88L78.84 29.88Q77.32 29.88 76.06 29.25Q74.80 28.63 73.90 27.43Q72.99 26.23 72.49 24.47Q72.00 22.70 72.00 20.43L72.00 20.43Q72.00 18.38 72.55 16.62Q73.11 14.85 74.16 13.56Q75.20 12.26 76.66 11.53Q78.12 10.80 79.93 10.80L79.93 10.80Q81.48 10.80 82.58 11.30Q83.68 11.79 84.54 12.62L84.54 12.62L84.54 2.87L88.99 2.87L88.99 29.61ZM80.35 26.36L80.35 26.36Q81.73 26.36 82.71 25.78Q83.68 25.20 84.54 24.14L84.54 24.14L84.54 15.86Q83.79 14.94 82.90 14.57Q82.00 14.19 80.98 14.19L80.98 14.19Q79.97 14.19 79.15 14.57Q78.33 14.94 77.77 15.71Q77.20 16.47 76.89 17.65Q76.59 18.83 76.59 20.43L76.59 20.43Q76.59 22.05 76.85 23.18Q77.11 24.30 77.59 25.02Q78.08 25.73 78.78 26.04Q79.48 26.36 80.35 26.36ZM94.08 11.15L98.53 11.15L98.53 29.61L94.08 29.61L94.08 11.15Z"/></g>
<g transform="matrix(1 0 0 1 732.1709 315.1549)" style="" id="340198">
		
<path xml:space="preserve" font-family="Lato" font-size="24" font-style="normal" font-weight="bold" style="stroke: none; stroke-width: 1; stroke-dasharray: none; stroke-linecap: butt; stroke-dashoffset: 0; stroke-linejoin: miter; stroke-miterlimit: 4; is-custom-font: none; font-file-url: none; fill: rgb(0,0,0); fill-rule: nonzero; opacity: 1; white-space: pre;" d="M-50.51-9.81L-50.51-9.81Q-50.30-9.81-50.15-9.79Q-50.01-9.78-49.89-9.72Q-49.78-9.67-49.67-9.57Q-49.56-9.46-49.43-9.30L-49.43-9.30L-40.32 2.31Q-40.37 1.89-40.39 1.49Q-40.41 1.08-40.41 0.74L-40.41 0.74L-40.41-9.81L-37.56-9.81L-37.56 7.54L-39.23 7.54Q-39.62 7.54-39.87 7.42Q-40.12 7.30-40.36 6.99L-40.36 6.99L-49.43-4.57Q-49.40-4.18-49.38-3.81Q-49.36-3.43-49.36-3.12L-49.36-3.12L-49.36 7.54L-52.20 7.54L-52.20-9.81L-50.51-9.81ZM-28.97-4.96L-28.97-4.96Q-27.59-4.96-26.47-4.52Q-25.35-4.08-24.56-3.26Q-23.76-2.44-23.33-1.27Q-22.90-0.09-22.90 1.36L-22.90 1.36Q-22.90 2.82-23.33 4.00Q-23.76 5.18-24.56 6.00Q-25.35 6.83-26.47 7.28Q-27.59 7.72-28.97 7.72L-28.97 7.72Q-30.35 7.72-31.48 7.28Q-32.61 6.83-33.41 6.00Q-34.20 5.18-34.64 4.00Q-35.08 2.82-35.08 1.36L-35.08 1.36Q-35.08-0.09-34.64-1.27Q-34.20-2.44-33.41-3.26Q-32.61-4.08-31.48-4.52Q-30.35-4.96-28.97-4.96ZM-28.97 5.44L-28.97 5.44Q-27.44 5.44-26.70 4.41Q-25.96 3.38-25.96 1.38L-25.96 1.38Q-25.96-0.61-26.70-1.65Q-27.44-2.70-28.97-2.70L-28.97-2.70Q-30.53-2.70-31.28-1.65Q-32.02-0.60-32.02 1.38L-32.02 1.38Q-32.02 3.36-31.28 4.40Q-30.53 5.44-28.97 5.44ZM-16.54 7.73L-16.54 7.73Q-18.14 7.73-19.00 6.83Q-19.86 5.92-19.86 4.32L-19.86 4.32L-19.86-2.55L-21.11-2.55Q-21.35-2.55-21.53-2.71Q-21.70-2.86-21.70-3.18L-21.70-3.18L-21.70-4.35L-19.72-4.68L-19.10-8.04Q-19.05-8.28-18.87-8.41Q-18.70-8.54-18.44-8.54L-18.44-8.54L-16.90-8.54L-16.90-4.66L-13.66-4.66L-13.66-2.55L-16.90-2.55L-16.90 4.12Q-16.90 4.70-16.61 5.02Q-16.32 5.34-15.84 5.34L-15.84 5.34Q-15.57 5.34-15.38 5.28Q-15.20 5.21-15.06 5.14Q-14.92 5.07-14.81 5.00Q-14.70 4.94-14.60 4.94L-14.60 4.94Q-14.46 4.94-14.38 5.00Q-14.30 5.07-14.20 5.20L-14.20 5.20L-13.31 6.64Q-13.96 7.18-14.80 7.46Q-15.64 7.73-16.54 7.73ZM-6.50-9.81L4.45-9.81L4.45-7.24L-3.24-7.24L-3.24-2.11L3.25-2.11L3.25 0.47L-3.24 0.47L-3.24 7.54L-6.50 7.54L-6.50-9.81ZM11.30-4.96L11.30-4.96Q12.68-4.96 13.80-4.52Q14.92-4.08 15.72-3.26Q16.51-2.44 16.94-1.27Q17.37-0.09 17.37 1.36L17.37 1.36Q17.37 2.82 16.94 4.00Q16.51 5.18 15.72 6.00Q14.92 6.83 13.80 7.28Q12.68 7.72 11.30 7.72L11.30 7.72Q9.92 7.72 8.79 7.28Q7.66 6.83 6.87 6.00Q6.07 5.18 5.63 4.00Q5.19 2.82 5.19 1.36L5.19 1.36Q5.19-0.09 5.63-1.27Q6.07-2.44 6.87-3.26Q7.66-4.08 8.79-4.52Q9.92-4.96 11.30-4.96ZM11.30 5.44L11.30 5.44Q12.84 5.44 13.57 4.41Q14.31 3.38 14.31 1.38L14.31 1.38Q14.31-0.61 13.57-1.65Q12.84-2.70 11.30-2.70L11.30-2.70Q9.74-2.70 9.00-1.65Q8.25-0.60 8.25 1.38L8.25 1.38Q8.25 3.36 9.00 4.40Q9.74 5.44 11.30 5.44ZM19.44-4.77L22.40-4.77L22.40 3.05Q22.40 4.18 22.92 4.80Q23.44 5.42 24.49 5.42L24.49 5.42Q25.26 5.42 25.93 5.07Q26.60 4.73 27.20 4.13L27.20 4.13L27.20-4.77L30.16-4.77L30.16 7.54L28.35 7.54Q27.78 7.54 27.60 7.00L27.60 7.00L27.39 6.02Q27.01 6.40 26.60 6.72Q26.19 7.04 25.73 7.26Q25.27 7.48 24.73 7.61Q24.20 7.73 23.59 7.73L23.59 7.73Q22.58 7.73 21.81 7.39Q21.03 7.05 20.50 6.42Q19.98 5.80 19.71 4.94Q19.44 4.08 19.44 3.05L19.44 3.05L19.44-4.77ZM36.30 7.54L33.33 7.54L33.33-4.77L35.14-4.77Q35.72-4.77 35.90-4.23L35.90-4.23L36.10-3.26Q36.48-3.64 36.89-3.96Q37.30-4.27 37.77-4.50Q38.23-4.72 38.76-4.84Q39.28-4.96 39.91-4.96L39.91-4.96Q40.92-4.96 41.70-4.62Q42.48-4.28 43.00-3.66Q43.52-3.04 43.79-2.19Q44.06-1.33 44.06-0.30L44.06-0.30L44.06 7.54L41.10 7.54L41.10-0.30Q41.10-1.42 40.57-2.04Q40.05-2.66 39.01-2.66L39.01-2.66Q38.24-2.66 37.57-2.31Q36.90-1.96 36.30-1.36L36.30-1.36L36.30 7.54ZM57.45 7.54L55.64 7.54Q55.06 7.54 54.88 7.00L54.88 7.00L54.64 5.81Q54.26 6.24 53.84 6.59Q53.42 6.94 52.93 7.19Q52.45 7.44 51.89 7.58Q51.33 7.72 50.68 7.72L50.68 7.72Q49.68 7.72 48.84 7.30Q48.00 6.88 47.39 6.08Q46.78 5.28 46.45 4.11Q46.12 2.93 46.12 1.42L46.12 1.42Q46.12 0.05 46.50-1.12Q46.87-2.30 47.56-3.16Q48.26-4.03 49.23-4.51Q50.20-5.00 51.42-5.00L51.42-5.00Q52.45-5.00 53.18-4.67Q53.91-4.34 54.49-3.79L54.49-3.79L54.49-10.29L57.45-10.29L57.45 7.54ZM51.69 5.37L51.69 5.37Q52.62 5.37 53.26 4.98Q53.91 4.60 54.49 3.89L54.49 3.89L54.49-1.63Q53.98-2.24 53.39-2.49Q52.80-2.74 52.11-2.74L52.11-2.74Q51.44-2.74 50.89-2.49Q50.35-2.24 49.97-1.73Q49.59-1.22 49.39-0.43Q49.18 0.35 49.18 1.42L49.18 1.42Q49.18 2.50 49.36 3.25Q49.53 4.00 49.86 4.47Q50.18 4.95 50.65 5.16Q51.12 5.37 51.69 5.37Z"/></g>
</svg>